<svg xmlns="http://www.w3.org/2000/svg" viewBox="0 0 1938.81 359.36"><defs><style>.cls-1,.cls-2{fill:none;stroke:#fff953;stroke-width:30px;}.cls-1{stroke-linecap:square;}</style></defs><g id="p4drow1"><path class="cls-1" d="M-1,198.5s138.6-7.68,266.23,72.62,325.43,73.81,334.85,72.61,115.18-13.46,165.71-33.07,151.29-24.58,187.9-23.55,233.88,16.19,233.88,16.19,272.26,25.89,338.2,6.76c103.22-29.94,150.73-83.33,150.73-83.33" transform="translate(16.81 0)"/></g><g id="p4drow2"><path class="cls-2" d="M1676.5,226.73c11.18-10.23,43.4-56.7,63-115.5s-8-78-28.5-80.5-40.9,9.5-48.5,35.5-11.78-6.5-18.5-28.5c-1.53-5-15-33.91-45.5-18-27.6,14.4-24.5,52-19.5,69,8.83,31.67,40.7,103.6,97.5,138" transform="translate(16.81 0)"/></g><g id="p4drow3"><path class="cls-2" d="M1676.5,226.73m0,0,0,0c31.13,20.89,106.37,40,198-17.35C1896.2,195.79,1915,182,1922,182" transform="translate(16.81 0)"/></g></svg>