<svg width="390" height="115" viewBox="0 0 390 115" fill="none" xmlns="http://www.w3.org/2000/svg">
<path d="M357 62C353.99 65.2014 348.241 70.1746 346 72.5C337 81.5 316 93 307 97C244 128.971 152.5 93.3987 98.5 66.9987C62.9464 49.6169 24 57 0 57M357 62C366.5 53 375.306 40.6868 376.5 38C378.5 33.5 381.5 29.5 381.5 20C381.5 12.4542 375.585 9.0486 372.075 9.00044C372.024 8.99975 371.978 8.99616 371.927 8.98969C369.678 8.70143 362.687 10.3398 361.5 23C360.3 35.8 361.608 22 358.5 12.5C357.355 8.99993 354 5 349 5C345 5 341.1 8 339 11.5C336.9 15 334.652 21.9895 339 36C343.5 50.5 355.472 58.8333 357 62ZM357 62C364.838 69.0406 386 89 390 89" stroke="#FFF953" stroke-width="10"/>
</svg>
