<?xml version="1.0" encoding="utf-8"?>
<!-- Generator: Adobe Illustrator 25.0.1, SVG Export Plug-In . SVG Version: 6.00 Build 0)  -->
<svg version="1.1" xmlns="http://www.w3.org/2000/svg" xmlns:xlink="http://www.w3.org/1999/xlink" x="0px" y="0px"
	 viewBox="0 0 1920 693" style="enable-background:new 0 0 1920 693;" xml:space="preserve">
<style type="text/css">
	.st0{fill:none;stroke:#6A8EDC;stroke-width:30;}
</style>
<g id="drow1">
	<path class="st0" d="M-19.5,677.5c15.7-39,84.6-137.9,153-131.5"/>
</g>
<g id="drow2">
	<path class="st0" d="M132.5,546c68.4,6.4,86.8,62.3,87.5,89.5c0.7,29.5-32,57.2-67,32.5C131,652.5,114.9,602,132.5,546z"/>
</g>
<g id="drow3">
	<path class="st0" d="M132.5,546 M132.5,546 M132.5,546 M132.5,546c9.5-37.3,49.6-113.5,134-119.5S605.3,446.3,722,460
		c124.8,19.2,399.3,43.2,498.5-14s335-111.8,440.5-132c33-4.5,108.8-35.4,152.5-124c51-103.5,58-154,118.5-175"/>
	<path class="st0" d="M373,450.4"/>
	<path class="st0" d="M373,450.4"/>
	<path class="st0" d="M373,450.4"/>
	<path class="st0" d="M373,450.4"/>
</g>
</svg>
