<?xml version="1.0" encoding="utf-8"?>
<!-- Generator: Adobe Illustrator 25.0.1, SVG Export Plug-In . SVG Version: 6.00 Build 0)  -->
<svg version="1.1" xmlns="http://www.w3.org/2000/svg" xmlns:xlink="http://www.w3.org/1999/xlink" x="0px" y="0px"
	 viewBox="0 0 1920 564" style="enable-background:new 0 0 1920 564;" xml:space="preserve">
<style type="text/css">
	.st0{fill:none;stroke:#FF62A1;stroke-width:30;}
</style>
<g id="drow1">
	<path class="st0" d="M-2,17.4c40.2-8,132.6-0.9,181,91.5c60.5,115.5,48,167.5,229,162s459.5-130,677.5-77
		c174.4,42.4,299.3,132.3,340,172c39.5,26.2,142.3,81.2,237.5,92c40.3,4.6,72.2,2.3,96.5-3 M1759.5,455"/>
	<path class="st0" d="M1483.9,439.3"/>
	<path class="st0" d="M1483.9,439.3"/>
</g>
<g id="drow2">
	<path class="st0" d="M1758.5,454.9c33-7.2,46.5-16,59-28.5c11.8-11.8,29.5-35.1,41.5-75.5c11-37-4-56-23.5-64
		c-13.5-4.2-44.6-4.2-61,29S1748.5,394.4,1758.5,454.9z"/>
</g>
<g id="drow3">
	<path class="st0" d="M1758.5,455c2.3,36.2,38.1,105.3,162.5,92.5"/>
</g>
</svg>
