<svg width="1920" height="868" viewBox="0 0 1920 868" fill="none" xmlns="http://www.w3.org/2000/svg">
<path d="M-2.5 824C7 824 72.5 852.5 132 852.5C238.471 852.5 291.333 791.399 304.5 765.065C314.667 742.732 327.902 675.498 285.5 637.5C247 602.999 207.147 625.999 195 650C184.667 670.417 173.2 719.001 212 756C250.8 792.999 346.5 790.481 389 780.065C454.833 764.399 635.5 695.965 831.5 547.565C886.667 500.732 1020.1 377.165 1112.5 257.565C1204.9 137.965 1303 99.3985 1340.5 95.0652C1378.5 90.5652 1463.1 97.2651 1497.5 160.065C1531.9 222.865 1521.48 271.569 1502 291.564C1483 311.064 1442.5 314 1421.5 291.564C1390 257.911 1400.5 199.5 1419 160.065C1434.83 121.232 1505.3 38.4652 1660.5 18.0652C1784.34 1.78785 1912.5 65.806 1920.5 65.806" stroke="#3AD7F2" stroke-width="30"/>
</svg>
